<?xml version="1.0" encoding="UTF-8" standalone="no"?>
<!DOCTYPE svg PUBLIC "-//W3C//DTD SVG 1.1//EN" "http://www.w3.org/Graphics/SVG/1.1/DTD/svg11.dtd">
<svg width="512.00" height="512.00" viewBox="0.00 0.00 512.00 512.00" xmlns="http://www.w3.org/2000/svg" xmlns:xlink="http://www.w3.org/1999/xlink">
<g stroke-linecap="round" id="Layer_1_2"/>
<g stroke-linecap="round" id="Rounded_rectangle_01_2">
<path d="M103.50,21.50 C103.77,21.47 188.08,21.49 224.82,21.53 C260.28,21.54 332.42,21.49 369.10,21.42 C385.09,21.32 412.55,21.24 422.43,21.75 C429.49,22.26 442.05,23.81 449.44,26.07 C452.24,26.95 460.56,30.28 462.47,31.12 C467.00,33.19 470.52,35.39 473.57,38.25 C474.26,38.89 479.49,44.40 481.07,47.16 C483.21,50.90 485.45,56.00 486.09,58.92 C489.89,76.06 490.55,89.64 490.73,110.76 C490.78,141.47 490.69,210.05 490.56,247.92 C490.52,279.21 490.67,349.53 490.85,388.58 C490.99,401.05 490.53,428.69 489.53,436.34 C488.54,443.81 484.09,459.73 481.67,464.01 C479.93,467.04 475.02,473.17 473.50,474.50 C471.83,475.95 462.26,482.12 461.50,482.50 C456.95,484.74 441.37,486.98 433.93,488.04 C421.80,489.52 397.51,491.01 373.50,491.50 C347.21,491.59 284.26,491.73 247.59,491.78 C210.41,491.76 146.67,491.63 120.11,491.52 C116.10,491.51 95.18,490.50 88.70,489.93 C79.63,488.90 71.08,487.28 63.40,484.65 C58.37,482.87 56.46,482.05 51.72,479.62 C48.84,478.09 43.43,474.58 40.98,472.13 C38.17,469.27 32.86,462.77 31.50,460.50 C29.02,456.26 25.09,442.23 24.27,434.50 C23.57,427.65 22.19,400.77 21.71,378.56 C21.39,345.59 20.86,273.97 20.66,235.33 C20.60,218.67 20.52,189.22 20.50,176.41 C20.50,166.58 21.50,159.65 21.56,155.96 C21.78,139.71 22.35,95.62 22.50,92.50 C22.75,87.59 26.95,66.03 27.47,64.02 C28.42,60.39 31.04,54.46 32.72,51.78 C34.63,48.77 38.41,44.21 41.40,41.31 C44.02,38.81 49.67,34.24 52.63,32.57 C57.44,29.91 73.56,26.16 81.20,24.61 C86.17,23.69 91.81,22.89 95.16,22.75 C98.82,22.62 103.08,21.55 103.50,21.50 Z" fill="none" stroke="rgb(0, 0, 0)" stroke-width="46.00" stroke-opacity="1.00" stroke-linejoin="round"/>
</g>
<g stroke-linecap="round" id="Layer_2">
<path d="M126.52,126.51 C146.67,146.67 187.16,187.16 207.48,207.49 C228.46,228.47 269.58,269.61 289.73,289.76 C310.20,310.24 352.29,352.34 373.91,373.96 C394.16,394.21 434.98,435.05 455.55,455.62 C460.68,460.76 469.62,469.69 473.42,473.49 C451.57,451.64 406.94,407.00 384.16,384.21 C363.38,363.43 321.56,321.60 300.51,300.54 C279.91,279.94 238.21,238.22 217.10,217.11 C195.92,195.92 154.13,154.12 133.52,133.51 C112.27,112.25 70.36,70.33 49.70,49.67 C44.74,44.71 39.11,39.08 38.43,38.40" fill="none" stroke="rgb(0, 0, 0)" stroke-width="35.00" stroke-opacity="1.00" stroke-linejoin="round"/>
<path d="M40.69,470.81 C40.69,470.81 40.54,470.96 40.54,470.96 C40.54,470.96 61.31,450.19 61.31,450.19 C61.31,450.19 37.90,473.60 37.90,473.60 C59.76,451.74 101.15,410.35 120.69,390.81 C140.48,371.02 180.84,330.66 201.41,310.09 C223.00,288.50 265.68,245.82 286.78,224.72 C306.82,204.68 348.09,163.41 369.31,142.19 C390.69,120.81 433.56,77.94 455.05,56.45 C460.57,50.93 469.70,41.80 473.31,38.19" fill="none" stroke="rgb(0, 0, 0)" stroke-width="35.00" stroke-opacity="1.00" stroke-linejoin="round"/>
</g>
</svg>
